<?xml version="1.0" encoding="UTF-8"?>
<!DOCTYPE svg PUBLIC "-//W3C//DTD SVG 1.1//EN" "http://www.w3.org/Graphics/SVG/1.1/DTD/svg11.dtd">
<!-- Creator: CorelDRAW 2017 -->
<svg xmlns="http://www.w3.org/2000/svg" xml:space="preserve" width="279.4mm" height="215.9mm" version="1.1" style="shape-rendering:geometricPrecision; text-rendering:geometricPrecision; image-rendering:optimizeQuality; fill-rule:evenodd; clip-rule:evenodd"
viewBox="0 0 27940 21590"
 xmlns:xlink="http://www.w3.org/1999/xlink">
 <defs>
  <style type="text/css">
   <![CDATA[
    .fil0 {fill:#261E47}
    .fil2 {fill:#E30400}
    .fil1 {fill:#E30400}
    .fil3 {fill:#261E47;fill-rule:nonzero}
   ]]>
  </style>
 </defs>
 <g id="Capa_x0020_1">
  <metadata id="CorelCorpID_0Corel-Layer"/>
  <g id="_2617024286400">
   <path class="fil0" d="M10185 12276l880 0c-105,203 -191,462 -239,745 -49,356 -39,761 39,970l-1049 0c-105,-641 27,-1262 368,-1714z"/>
   <path class="fil0" d="M12306 14138c-371,447 -880,739 -1382,739 -502,0 -882,-291 -1054,-739l1090 0 400 0 947 0z"/>
   <path class="fil0" d="M12433 13990l-925 0c145,-208 285,-614 350,-970 43,-283 40,-542 0,-745l962 0c134,567 -63,1245 -387,1714z"/>
   <path class="fil0" d="M11707 11354c510,0 893,299 1062,756l-958 0 -646 0 -856 0c372,-457 889,-756 1398,-756z"/>
   <path class="fil0" d="M8717 12515c0,0 -27,-178 -102,-244l901 0 -799 244z"/>
   <path class="fil1" d="M8361 11356c640,-28 1105,220 1238,753l-2606 0c327,-454 728,-725 1368,-753z"/>
   <path class="fil0" d="M7626 13396c488,98 509,120 509,120 0,0 236,42 295,185 59,143 -80,289 -80,289l1081 0c326,-590 -114,-1160 -685,-1282 -434,-93 -604,-132 -604,-132 0,0 -179,-53 -228,-135 -50,-82 -25,-168 -25,-168l-954 0c-261,592 130,1011 692,1123z"/>
   <path class="fil0" d="M7551 13991c0,0 -97,-63 -137,-232l-952 226 1088 6z"/>
   <path class="fil1" d="M7884 14870c-710,27 -1226,-214 -1373,-730l2891 0c-363,440 -808,703 -1518,730z"/>
   <path class="fil2" d="M6716 12108l-2752 0c0,0 947,-1157 2887,-611l-135 611z"/>
   <path class="fil1" d="M6258 14137l-2694 0c0,0 406,1062 2547,642l147 -642z"/>
   <path class="fil0" d="M3818 12276c452,0 904,0 1356,0 -213,120 -376,272 -486,457l1430 0 -151 656 -1432 0c3,295 142,459 320,586l-1356 0c-172,-516 -25,-1277 319,-1699z"/>
   <path class="fil0" d="M1397 11350l3023 0c-4,36 -8,63 -14,72 -316,155 -595,380 -826,691l-2335 0 153 -762z"/>
   <polygon class="fil0" points="2972,14135 2839,14872 1714,14872 1873,14135 "/>
   <polygon class="fil0" points="3007,13962 1912,13962 2254,12274 3323,12274 "/>
  </g>
  <polygon class="fil3" points="4078,10555 4078,9760 4226,9760 4226,10420 4494,10420 4494,10555 "/>
  <path id="1" class="fil3" d="M4749 10236l126 0 -64 -334 -63 334zm-213 320l179 -796 199 0 181 796 -160 0 -39 -200 -170 0 -38 200 -151 0z"/>
  <path id="2" class="fil3" d="M5317 10442l61 0c38,0 65,-9 81,-28 16,-19 23,-51 23,-98 0,-48 -8,-81 -25,-100 -17,-18 -49,-27 -95,-27l-45 0 0 253zm0 -360l50 0c37,0 63,-8 77,-24 14,-16 21,-46 21,-89 0,-39 -7,-66 -22,-80 -14,-14 -41,-21 -81,-21l-46 0 0 215zm-144 473l0 -796 238 0c68,0 119,16 152,48 33,32 50,80 50,146 0,53 -8,93 -25,122 -16,29 -41,46 -74,52 37,5 66,24 87,56 21,32 31,74 31,126 0,84 -18,146 -53,186 -35,40 -90,59 -165,59l-242 0z"/>
  <path id="3" class="fil3" d="M5885 10158c0,131 8,213 23,247 15,34 44,51 85,51 41,0 68,-17 83,-50 15,-33 22,-116 22,-248 0,-132 -8,-215 -23,-249 -15,-34 -43,-51 -84,-51 -41,0 -69,17 -84,51 -15,34 -23,117 -23,249zm-151 0c0,-84 4,-152 12,-202 8,-50 20,-88 37,-114 23,-36 51,-62 83,-77 32,-16 74,-23 126,-23 52,0 95,8 126,23 32,16 60,41 83,77 17,26 29,64 37,115 8,50 12,117 12,201 0,84 -4,151 -12,201 -8,50 -20,89 -37,115 -23,36 -51,62 -83,77 -32,16 -74,23 -126,23 -52,0 -95,-8 -126,-23 -32,-16 -60,-41 -83,-77 -17,-26 -29,-64 -37,-114 -8,-50 -12,-118 -12,-202z"/>
  <path id="4" class="fil3" d="M6514 10096l85 0c43,0 73,-9 90,-26 17,-17 25,-48 25,-92 0,-40 -9,-67 -27,-83 -18,-16 -52,-24 -100,-24l-73 0 0 225zm-143 459l0 -796 265 0c80,0 138,16 174,49 35,33 53,86 53,159 0,52 -10,92 -29,122 -19,30 -47,47 -84,53 70,19 107,78 110,178 0,5 0,8 0,10l4 105c1,30 5,54 11,72 6,18 16,34 29,47l-176 0c-4,-13 -7,-29 -9,-47 -2,-18 -3,-44 -4,-77l-2 -83 0 -21c0,-46 -10,-78 -29,-95 -20,-17 -60,-26 -120,-26l-51 0 0 349 -143 0z"/>
  <path id="5" class="fil3" d="M7136 10236l126 0 -64 -334 -63 334zm-213 320l179 -796 199 0 181 796 -160 0 -39 -200 -170 0 -38 200 -151 0z"/>
  <polygon id="6" class="fil3" points="7616,10555 7616,9891 7445,9891 7445,9760 7934,9760 7934,9891 7764,9891 7764,10555 "/>
  <path id="7" class="fil3" d="M8148 10158c0,131 8,213 23,247 15,34 44,51 85,51 41,0 68,-17 83,-50 15,-33 22,-116 22,-248 0,-132 -8,-215 -23,-249 -15,-34 -43,-51 -84,-51 -41,0 -69,17 -84,51 -15,34 -23,117 -23,249zm-151 0c0,-84 4,-152 12,-202 8,-50 20,-88 37,-114 23,-36 51,-62 83,-77 32,-16 74,-23 126,-23 52,0 95,8 126,23 32,16 60,41 83,77 17,26 29,64 37,115 8,50 12,117 12,201 0,84 -4,151 -12,201 -8,50 -20,89 -37,115 -23,36 -51,62 -83,77 -32,16 -74,23 -126,23 -52,0 -95,-8 -126,-23 -32,-16 -60,-41 -83,-77 -17,-26 -29,-64 -37,-114 -8,-50 -12,-118 -12,-202z"/>
  <path id="8" class="fil3" d="M8777 10096l85 0c43,0 73,-9 90,-26 17,-17 25,-48 25,-92 0,-40 -9,-67 -27,-83 -18,-16 -52,-24 -100,-24l-73 0 0 225zm-143 459l0 -796 265 0c80,0 138,16 174,49 35,33 53,86 53,159 0,52 -10,92 -29,122 -19,30 -47,47 -84,53 70,19 107,78 110,178 0,5 0,8 0,10l4 105c1,30 5,54 11,72 6,18 16,34 29,47l-176 0c-4,-13 -7,-29 -9,-47 -2,-18 -3,-44 -4,-77l-2 -83 0 -21c0,-46 -10,-78 -29,-95 -20,-17 -60,-26 -120,-26l-51 0 0 349 -143 0z"/>
  <polygon id="9" class="fil3" points="9244,10555 9244,9760 9393,9760 9393,10555 "/>
  <path id="10" class="fil3" d="M9664 10158c0,131 8,213 23,247 15,34 44,51 85,51 41,0 68,-17 83,-50 15,-33 22,-116 22,-248 0,-132 -8,-215 -23,-249 -15,-34 -43,-51 -84,-51 -41,0 -69,17 -84,51 -15,34 -23,117 -23,249zm-151 0c0,-84 4,-152 12,-202 8,-50 20,-88 37,-114 23,-36 51,-62 83,-77 32,-16 74,-23 126,-23 52,0 95,8 126,23 32,16 60,41 83,77 17,26 29,64 37,115 8,50 12,117 12,201 0,84 -4,151 -12,201 -8,50 -20,89 -37,115 -23,36 -51,62 -83,77 -32,16 -74,23 -126,23 -52,0 -95,-8 -126,-23 -32,-16 -60,-41 -83,-77 -17,-26 -29,-64 -37,-114 -8,-50 -12,-118 -12,-202z"/>
  <path class="fil3" d="M4859 16343l66 0c34,0 57,-2 70,-7 13,-5 24,-13 32,-25 14,-21 24,-49 29,-85 6,-36 9,-94 9,-173 0,-77 -4,-133 -10,-168 -7,-35 -19,-62 -35,-80 -9,-9 -20,-15 -33,-19 -14,-4 -35,-5 -64,-5l-64 0 0 562zm-145 117l0 -796 238 0c49,0 87,4 116,12 29,8 52,22 71,40 28,27 48,62 59,103 11,42 17,106 17,194 0,113 -4,193 -12,240 -8,47 -22,86 -40,119 -18,33 -44,56 -76,68 -33,13 -89,19 -169,19l-204 0z"/>
  <polygon id="1" class="fil3" points="5336,16461 5336,15665 5745,15665 5745,15797 5483,15797 5483,15982 5727,15982 5727,16107 5483,16107 5483,16327 5751,16327 5751,16461 "/>
  <polygon id="2" class="fil3" points="6125,16461 6125,15665 6348,15665 6457,16180 6566,15665 6789,15665 6789,16461 6648,16461 6651,15755 6503,16461 6412,16461 6263,15755 6267,16461 "/>
  <path id="3" class="fil3" d="M6925 16461l0 -796 409 0 0 132 -262 0 0 184 243 0 0 126 -243 0 0 219 268 0 0 134 -415 0zm127 -863l90 -147 132 0 -158 147 -65 0z"/>
  <polygon id="4" class="fil3" points="7391,16461 7585,16055 7400,15665 7567,15665 7673,15916 7781,15665 7946,15665 7754,16055 7951,16461 7784,16461 7669,16195 7551,16461 "/>
  <polygon id="5" class="fil3" points="8029,16461 8029,15665 8177,15665 8177,16461 "/>
  <path id="6" class="fil3" d="M8629 16177l144 0c0,3 0,8 1,15 0,7 1,12 1,16 0,92 -19,160 -58,205 -39,45 -98,67 -178,67 -38,0 -71,-5 -98,-15 -27,-10 -51,-25 -70,-46 -27,-28 -46,-65 -57,-114 -11,-48 -17,-132 -17,-252 0,-82 3,-147 10,-195 7,-49 17,-84 31,-108 21,-37 48,-63 80,-79 32,-16 72,-25 122,-25 81,0 139,21 176,63 37,42 55,110 56,203l-144 0 0 -19c0,-43 -7,-75 -21,-96 -14,-21 -35,-32 -64,-32 -36,0 -60,15 -73,44 -13,29 -19,110 -19,243 0,143 6,231 19,261 13,31 37,47 72,47 33,0 56,-12 69,-37 13,-24 20,-69 20,-135l0 -11z"/>
  <path id="7" class="fil3" d="M9027 16063c0,131 8,213 23,247 15,34 44,51 85,51 41,0 68,-17 83,-50 15,-33 22,-116 22,-248 0,-132 -8,-215 -23,-249 -15,-34 -43,-51 -84,-51 -41,0 -69,17 -84,51 -15,34 -23,117 -23,249zm-151 0c0,-84 4,-152 12,-202 8,-50 20,-88 37,-114 23,-36 51,-62 83,-77 32,-16 74,-23 126,-23 52,0 95,8 126,23 32,16 60,41 83,77 17,26 29,64 37,115 8,50 12,117 12,201 0,84 -4,151 -12,201 -8,50 -20,89 -37,115 -23,36 -51,62 -83,77 -32,16 -74,23 -126,23 -52,0 -95,-8 -126,-23 -32,-16 -60,-41 -83,-77 -17,-26 -29,-64 -37,-114 -8,-50 -12,-118 -12,-202z"/>
 </g>
</svg>
